<svg width="30" height="31" viewBox="0 0 30 31" fill="none" xmlns="http://www.w3.org/2000/svg">
<path d="M4.99998 0.664093H8.74998C11.5114 0.664093 13.75 2.89276 13.75 5.64195V9.37536C13.75 12.1246 11.5114 14.3532 8.74998 14.3532H4.99998C2.23857 14.3533 0 12.1246 0 9.37536V5.64195C0 2.89276 2.23857 0.664093 4.99998 0.664093Z" fill="white"/>
<path d="M21.2501 0.664093H25.0001C27.7615 0.664093 30.0001 2.89276 30.0001 5.64195V9.37536C30.0001 12.1246 27.7615 14.3532 25.0001 14.3532H21.2501C18.4887 14.3532 16.2502 12.1246 16.2502 9.37536V5.64195C16.2501 2.89276 18.4887 0.664093 21.2501 0.664093Z" fill="white"/>
<path d="M4.99998 16.8422H8.74998C11.5114 16.8422 13.75 19.0708 13.75 21.82V25.5534C13.75 28.3026 11.5114 30.5313 8.74998 30.5313H4.99998C2.23857 30.5314 0 28.3027 0 25.5535V21.8201C0 19.0708 2.23857 16.8422 4.99998 16.8422Z" fill="white"/>
<path d="M21.2501 16.8422H25.0001C27.7615 16.8422 30.0001 19.0708 30.0001 21.82V25.5534C30.0001 28.3027 27.7615 30.5314 25.0001 30.5314H21.2501C18.4887 30.5314 16.2502 28.3027 16.2502 25.5535V21.8201C16.2501 19.0708 18.4887 16.8422 21.2501 16.8422Z" fill="white"/>
</svg>
