<svg width="30" height="31" viewBox="0 0 30 31" fill="none" xmlns="http://www.w3.org/2000/svg">
<path d="M13.1791 12.0632C13.3828 12.39 13.4891 12.7818 13.4766 13.1928C13.4766 13.7544 13.3516 14.1884 13.0891 14.5075C12.5103 15.212 11.4828 15.4137 10.6266 15.4137H9.96406C9.81406 15.4137 9.65156 15.4009 9.47656 15.3882V11.0995C9.56406 11.0868 9.73906 11.074 9.98906 11.0868C10.2266 11.074 10.5141 11.074 10.8391 11.074C11.7003 11.074 12.6841 11.2693 13.1791 12.0632Z" fill="white"/>
<path d="M24.6875 0.965118H5.3125C2.375 0.965118 0 3.39024 0 6.38973V25.4078C0 28.4073 2.375 30.8324 5.3125 30.8324H24.6875C27.625 30.8324 30 28.4073 30 25.4078V6.38973C30 3.39024 27.625 0.965118 24.6875 0.965118ZM15.45 15.8349C14.95 16.5497 14.25 17.0858 13.4375 17.3921C12.5875 17.7112 11.65 17.8261 10.625 17.8261C10.325 17.8261 10.125 17.8261 10 17.8133C9.875 17.8006 9.7 17.8006 9.4625 17.8006V21.8977C9.475 21.9871 9.4125 22.0637 9.325 22.0764H6.9C6.8 22.0764 6.75 22.0254 6.75 21.9105V8.77656C6.75 8.68721 6.7875 8.63616 6.875 8.63616C7.0875 8.63616 7.2875 8.63616 7.575 8.62339C7.875 8.61063 8.1875 8.61063 8.525 8.59787C8.8625 8.5851 9.225 8.5851 9.6125 8.57234C10 8.55958 10.375 8.55958 10.75 8.55958C11.775 8.55958 12.625 8.68721 13.325 8.95525C13.95 9.17224 14.525 9.52962 15 10.0019C15.4 10.4103 15.7125 10.9081 15.9125 11.457C16.1 11.993 16.2 12.5419 16.2 13.1162C16.2 14.2139 15.95 15.1202 15.45 15.8349ZM24.3125 20.8001C23.9625 21.3106 23.475 21.7063 22.9125 21.936C22.3 22.2041 21.55 22.3445 20.65 22.3445C20.075 22.3445 19.5125 22.2934 18.95 22.1785C18.5125 22.102 18.075 21.9616 17.675 21.7701C17.5875 21.719 17.525 21.6297 17.5375 21.5276V19.3067C17.5375 19.2684 17.55 19.2173 17.5875 19.1918C17.625 19.1663 17.6625 19.1791 17.7 19.2046C18.1875 19.4981 18.7 19.7024 19.25 19.83C19.725 19.9576 20.225 20.0215 20.725 20.0215C21.2 20.0215 21.5375 19.9576 21.7625 19.8428C21.9625 19.7534 22.1 19.5364 22.1 19.3067C22.1 19.128 22 18.9621 21.8 18.7961C21.6 18.6302 21.1875 18.4388 20.575 18.1962C19.9375 17.9665 19.35 17.6602 18.8 17.2772C18.4125 16.9964 18.0875 16.6263 17.85 16.1923C17.65 15.7839 17.55 15.3371 17.5625 14.8904C17.5625 14.3416 17.7125 13.8183 17.9875 13.346C18.3 12.8354 18.7625 12.427 19.3 12.1717C19.8875 11.8654 20.625 11.725 21.5125 11.725C22.025 11.725 22.55 11.7633 23.0625 11.8399C23.4375 11.8909 23.8 11.993 24.1375 12.1334C24.1875 12.1462 24.2375 12.1973 24.2625 12.2483C24.275 12.2994 24.2875 12.3504 24.2875 12.4015V14.482C24.2875 14.533 24.2625 14.5841 24.225 14.6096C24.1125 14.6351 24.05 14.6351 24 14.6096C23.625 14.4054 23.225 14.265 22.8 14.1756C22.3375 14.0735 21.875 14.0097 21.4 14.0097C21.15 13.997 20.8875 14.0352 20.65 14.0991C20.4875 14.1374 20.35 14.2267 20.2625 14.3543C20.2 14.4564 20.1625 14.5841 20.1625 14.699C20.1625 14.8138 20.2125 14.9287 20.2875 15.0308C20.4 15.1712 20.55 15.2861 20.7125 15.3754C21 15.5286 21.3 15.669 21.6 15.7966C22.275 16.0264 22.925 16.3455 23.525 16.7284C23.9375 16.9964 24.275 17.3538 24.5125 17.7878C24.7125 18.1962 24.8125 18.643 24.8 19.1025C24.8125 19.7024 24.6375 20.3023 24.3125 20.8001Z" fill="white"/>
</svg>
