<svg width="30" height="30" viewBox="0 0 30 30" fill="none" xmlns="http://www.w3.org/2000/svg">
<path d="M12.1667 10.1031H12.1417L10.5944 15.2836H13.7639L12.1667 10.1031ZM12.1667 10.1031H12.1417L10.5944 15.2836H13.7639L12.1667 10.1031ZM24.6453 0.363098H5.30342C2.37094 0.363098 0 2.72355 0 5.64305V24.154C0 27.0735 2.37094 29.4339 5.30342 29.4339H24.6453C27.5778 29.4339 29.9487 27.0735 29.9487 24.154V5.64305C29.9487 2.72355 27.5778 0.363098 24.6453 0.363098ZM18.3436 20.899H15.7356C15.6482 20.9114 15.5609 20.8493 15.5359 20.7624L14.5126 17.8056H9.8706L8.92222 20.7251C8.89726 20.8369 8.79743 20.9114 8.68513 20.899H6.33914C6.20188 20.899 6.16444 20.8245 6.20188 20.6754L10.22 9.15888C10.2574 9.03465 10.2949 8.89799 10.3448 8.74891C10.3947 8.48802 10.4197 8.2147 10.4197 7.94139C10.4072 7.87927 10.4571 7.81715 10.5195 7.80473H13.7515C13.8513 7.80473 13.9012 7.842 13.9137 7.90412L18.4684 20.7002C18.5058 20.8369 18.4684 20.899 18.3436 20.899ZM22.5863 20.7127C22.5863 20.8493 22.5364 20.9114 22.4241 20.9114H19.9783C19.8535 20.9114 19.7911 20.8369 19.7911 20.7127V11.1466C19.7911 11.0224 19.841 10.9727 19.9533 10.9727H22.4241C22.5364 10.9727 22.5863 11.0348 22.5863 11.1466V20.7127ZM22.3243 9.49432C22.0373 9.79248 21.613 9.95398 21.1887 9.92914C20.7769 9.94156 20.3776 9.78006 20.0781 9.49432C19.7911 9.18373 19.6414 8.77376 19.6538 8.35136C19.6414 7.92896 19.8036 7.53141 20.1031 7.24568C20.4026 6.95994 20.8019 6.81086 21.2137 6.81086C21.7003 6.81086 22.0747 6.95994 22.3492 7.24568C22.6238 7.54384 22.7735 7.94139 22.761 8.35136C22.7735 8.77376 22.6238 9.18373 22.3243 9.49432ZM12.1417 10.1031L10.5944 15.2836H13.7639L12.1667 10.1031H12.1417Z" fill="white"/>
</svg>
