<svg width="30" height="30" viewBox="0 0 30 30" fill="none" xmlns="http://www.w3.org/2000/svg">
<path d="M23.75 0H6.25C2.80375 0 0 2.80375 0 6.25V8.75H30V6.25C30 2.80375 27.1963 0 23.75 0ZM5.625 6.25C4.59 6.25 3.75 5.41 3.75 4.375C3.75 3.34 4.59 2.5 5.625 2.5C6.66 2.5 7.5 3.34 7.5 4.375C7.5 5.41 6.66 6.25 5.625 6.25ZM10.625 6.25C9.59 6.25 8.75 5.41 8.75 4.375C8.75 3.34 9.59 2.5 10.625 2.5C11.66 2.5 12.5 3.34 12.5 4.375C12.5 5.41 11.66 6.25 10.625 6.25ZM5.7225 15.8813L6.52 20H4.94375L5.7225 15.8813ZM13.75 16.625V20.875C13.75 21.3575 13.3575 21.75 12.875 21.75C12.3925 21.75 12 21.75 12 21.75V15.7475C12 15.7475 12.3925 15.7475 12.875 15.7475C13.3575 15.7475 13.75 16.14 13.75 16.6225V16.625ZM30 23.75C30 25.8175 28.3175 27.5 26.25 27.5V28.75C26.25 29.44 25.69 30 25 30C24.31 30 23.75 29.44 23.75 28.75V27.5H23.415C22.08 27.5 20.8363 26.7825 20.1675 25.6262C19.8225 25.0287 20.0263 24.265 20.6238 23.9188C21.22 23.5725 21.9862 23.7775 22.3312 24.375C22.5537 24.76 22.97 25 23.415 25H26.25C26.9387 25 27.5 24.44 27.5 23.75C27.5 23.2775 27.1613 22.8775 26.695 22.8L22.8925 22.1663C21.2162 21.8875 19.9987 20.45 19.9987 18.75C19.9987 16.6825 21.6813 15 23.7488 15V13.75C23.7488 13.06 24.3088 12.5 24.9988 12.5C25.6888 12.5 26.2488 13.06 26.2488 13.75V15H26.5837C27.9188 15 29.1625 15.7175 29.8312 16.8737C30.1763 17.4712 29.9725 18.235 29.375 18.5812C28.7787 18.9275 28.0138 18.7225 27.6675 18.125C27.445 17.74 27.0287 17.5 26.5837 17.5H23.7488C23.06 17.5 22.4988 18.06 22.4988 18.75C22.4988 19.2225 22.8375 19.6225 23.3037 19.7L27.1062 20.3337C28.7825 20.6125 30 22.05 30 23.75ZM21.3275 12.9887C21.4638 12.3275 21.7787 11.7338 22.2137 11.25H0V21.25C0 24.6963 2.80375 27.5 6.25 27.5H18.445C18.2913 27.2975 18.1325 27.1 18.0037 26.8762C17.1225 25.3512 17.4375 23.4575 18.6575 22.29C17.9263 21.2963 17.5 20.0688 17.5 18.7487C17.5 16.1612 19.0813 13.9375 21.3275 12.9887ZM8.08 23.7488H8.0675C7.63375 23.7488 7.2625 23.4375 7.18625 23.01L6.99 21.9062H4.4825L4.275 23.0175C4.19625 23.4412 3.82625 23.7488 3.395 23.7488C2.83 23.7488 2.40625 23.2313 2.5175 22.6775L4.0175 15.2075C4.14625 14.4825 4.8025 13.7487 5.74875 13.7487C6.695 13.7487 7.28125 14.4038 7.43125 15.2388L8.9575 22.6725C9.07125 23.2275 8.6475 23.7475 8.08125 23.7475L8.08 23.7488ZM15.7487 20.875C15.7487 22.4625 14.4612 23.75 12.8737 23.75H10.9987C10.4462 23.75 9.99875 23.3025 9.99875 22.75V14.75C9.99875 14.1975 10.4462 13.75 10.9987 13.75H12.8737C14.4612 13.75 15.7487 15.0375 15.7487 16.625V20.875Z" fill="white"/>
</svg>
