<svg width="30" height="30" viewBox="0 0 30 30" fill="none" xmlns="http://www.w3.org/2000/svg">
<path d="M29.2663 20.0366L18.4242 15.1286C18.3867 15.1111 18.3492 15.0975 18.3117 15.0838C17.4018 14.7752 16.4143 15.0029 15.7343 15.6798C15.0544 16.3568 14.8256 17.3399 15.1819 18.3566L20.1117 29.1519C20.3104 29.5887 20.7441 29.8724 21.2266 29.8811H21.2504C21.7228 29.8811 22.1566 29.6148 22.3691 29.193L24.6827 24.5861L29.31 22.2827C29.7413 22.0674 30.01 21.6269 30.0012 21.1466C29.9925 20.6675 29.7075 20.2357 29.2688 20.0366H29.2663ZM16.1393 27.34C15.9243 27.3587 15.7081 27.3724 15.4894 27.3811C14.6544 26.5585 12.477 24.2477 10.9595 21.169H11.8745C12.5645 21.169 13.1245 20.6127 13.1245 19.9246C13.1245 19.2364 12.5645 18.6801 11.8745 18.6801H9.96208C9.59835 17.4954 9.37461 16.2411 9.37461 14.9469C9.37461 13.6527 9.5996 12.3996 9.96458 11.2136H20.0354C20.1829 11.6952 20.3079 12.188 20.4041 12.6908C20.5341 13.3665 21.1904 13.812 21.8653 13.6801C22.5428 13.5519 22.9878 12.8998 22.859 12.2253C22.794 11.8831 22.7165 11.5459 22.6303 11.2136H26.8714C26.8876 11.2136 26.9051 11.2136 26.9214 11.2136C27.2951 12.3933 27.4963 13.6477 27.4963 14.9481C27.4963 15.3302 27.4789 15.7072 27.4451 16.0805C27.3839 16.765 27.8901 17.3698 28.5776 17.432C29.2675 17.4992 29.8737 16.989 29.935 16.3045C29.975 15.8578 29.9962 15.4048 29.9962 14.9481C29.9987 6.71257 23.2703 0.0138626 14.9994 0.0138626C6.72847 0.0138626 0 6.71257 0 14.9469C0 23.1812 6.72847 29.8799 14.9981 29.8799C15.4569 29.8799 15.9106 29.8587 16.3581 29.8189C17.0455 29.7579 17.5543 29.1544 17.493 28.4687C17.4318 27.7855 16.828 27.2803 16.1393 27.34ZM7.36469 18.6801H3.12487C3.10862 18.6801 3.09237 18.6801 3.07487 18.6801C2.70114 17.5004 2.4999 16.2461 2.4999 14.9456C2.4999 13.6452 2.70114 12.3908 3.07487 11.2111C3.09112 11.2111 3.10737 11.2111 3.12487 11.2111H7.36469C7.05845 12.3996 6.87471 13.649 6.87471 14.9444C6.87471 16.2398 7.0572 17.4892 7.36469 18.6776V18.6801ZM10.9658 8.72479C12.242 6.14013 13.9844 4.09058 15.0019 3.0154C16.0206 4.08933 17.763 6.13516 19.0392 8.72479H10.9658ZM25.8214 8.72479H21.7866C20.7979 6.37782 19.4267 4.38426 18.2467 2.92953C21.4704 3.7944 24.1827 5.9124 25.8214 8.72479ZM11.7495 2.93078C10.5696 4.3855 9.19711 6.37906 8.20966 8.72479H4.17733C5.81476 5.9124 8.52589 3.7944 11.7495 2.93078ZM4.17733 21.169H8.20966C9.19711 23.5159 10.5696 25.5083 11.7495 26.963C8.52714 26.0981 5.81601 23.9801 4.17733 21.169Z" fill="white"/>
</svg>
