<svg width="30" height="28" viewBox="0 0 30 28" fill="none" xmlns="http://www.w3.org/2000/svg">
<path d="M0 27.6885H30V11.5104H0V27.6885ZM20.6775 16.4883L20.9888 20.4183L22.5 17.5224L24.0112 20.4183L24.32 16.4883H25.625L25.1712 21.7412C25.1325 22.2887 24.75 22.7106 24.2887 22.7106C23.9837 22.7106 23.7 22.5227 23.5375 22.2128L22.4988 20.2217L21.46 22.2128C21.2987 22.5227 21.015 22.7106 20.7087 22.7106C20.2487 22.7106 19.865 22.2887 19.8263 21.7412L19.3725 16.4883H20.675H20.6775ZM13.1775 16.4883L13.4888 20.4183L15 17.5224L16.5112 20.4183L16.82 16.4883H18.125L17.6712 21.7412C17.6325 22.2887 17.25 22.7106 16.7887 22.7106C16.4837 22.7106 16.2 22.5227 16.0375 22.2128L14.9987 20.2217L13.96 22.2128C13.7987 22.5227 13.515 22.7106 13.2088 22.7106C12.7488 22.7106 12.365 22.2887 12.3263 21.7412L11.8725 16.4883H13.175H13.1775ZM5.6775 16.4883L5.98875 20.4183L7.5 17.5224L9.01125 20.4183L9.32 16.4883H10.625L10.1713 21.7412C10.1325 22.2887 9.75 22.7106 9.28875 22.7106C8.98375 22.7106 8.7 22.5227 8.5375 22.2128L7.49875 20.2217L6.46 22.2128C6.29875 22.5227 6.015 22.7106 5.70875 22.7106C5.24875 22.7106 4.865 22.2887 4.82625 21.7412L4.3725 16.4883H5.675H5.6775ZM26.25 0.31015H3.75C1.6825 0.31015 0 1.98521 0 4.04356V9.02144H30V4.04356C30 1.98521 28.3175 0.31015 26.25 0.31015ZM4.375 6.5325C3.34 6.5325 2.5 5.69622 2.5 4.6658C2.5 3.63537 3.34 2.79909 4.375 2.79909C5.41 2.79909 6.25 3.63537 6.25 4.6658C6.25 5.69622 5.41 6.5325 4.375 6.5325ZM9.375 6.5325C8.34 6.5325 7.5 5.69622 7.5 4.6658C7.5 3.63537 8.34 2.79909 9.375 2.79909C10.41 2.79909 11.25 3.63537 11.25 4.6658C11.25 5.69622 10.41 6.5325 9.375 6.5325Z" fill="white"/>
</svg>
